<svg version="1" xmlns="http://www.w3.org/2000/svg" width="266.667" height="266.667" viewBox="0 0 200.000000 200.000000"><path d="M87.6 19.7c-.2.2-1.9.7-3.8.9-5.9 1-16.8 5.1-24.5 9.6-17.7 10.1-31.2 27.4-37.2 47.5L19.9 85H0v31l2.8.1c1.5 0 5.9 0 9.9-.1l7.2-.1 1.1 4.3c3.4 12.8 10.5 25.7 19.5 35.6 23.3 25.5 61.5 33.2 93.3 18.6 21.2-9.7 38-29.1 43.9-50.6.9-3.5 2.2-6.6 2.8-7.1.5-.4 2.8-.7 5-.6h9.3l5.2-.1V85h-10c-7.2 0-10.2-.4-10.4-1.3-.2-.6-1.2-3.9-2.1-7.2-8.1-27.9-32.9-50.2-62.5-56-6.1-1.2-26.4-1.8-27.4-.8zm27.9 29.8c9.4 3.3 15 6.8 22 13.9 6.6 6.7 12.5 16.2 12.5 19.9 0 1.6-4.2 1.7-50.5 1.7H49l1.7-4.3c6.2-15.6 22.8-29.6 38.8-32.5 7.2-1.3 20.2-.7 26 1.3zm34.5 68.1c0 3.8-6 13.4-12.5 20-11 11.2-23.7 16.4-38.6 15.8-8.8-.3-11-.7-16.9-2.8-13.6-5-24.4-15.2-30.4-28.8l-2.5-5.6h50.5c42.4 0 50.4.2 50.4 1.4z"/></svg>